<svg viewBox="0 0 220 310" xmlns="http://www.w3.org/2000/svg" font-family="system-ui,-apple-system,sans-serif">
  <!-- Widget card: Lavender light -->
  <rect width="220" height="310" rx="20" fill="#FFFFFF"/>

  <!-- Header -->
  <text x="14" y="26" font-size="9" font-weight="600" fill="#49454F" letter-spacing="0.06">NEWSFEED</text>
  <rect x="170" y="14" width="36" height="16" rx="4" fill="#E0D8F0"/>
  <text x="188" y="25.5" font-size="9" font-weight="700" fill="#9B72E3" text-anchor="middle">12</text>
  <rect x="0" y="36" width="220" height="1" fill="#E0D8F0"/>

  <!-- Article 1 – unread -->
  <rect x="0" y="37" width="3" height="58" fill="#9B72E3"/>
  <circle cx="20" cy="52" r="7" fill="#9B72E3"/>
  <text x="20" y="55.5" font-size="7" font-weight="700" fill="#fff" text-anchor="middle">י</text>
  <text x="32" y="53" font-size="7.5" font-weight="600" fill="#9B72E3">ynet</text>
  <text x="200" y="53" font-size="7" fill="#49454F" text-anchor="end">09:41</text>
  <text x="11" y="67" font-size="8.5" font-weight="500" fill="#1C1B1F">שר האוצר הכריז על</text>
  <text x="11" y="79" font-size="8.5" font-weight="500" fill="#1C1B1F">תוכנית כלכלית חדשה</text>
  <rect x="0" y="95" width="220" height="0.5" fill="#E0D8F0" opacity="0.8"/>

  <!-- Article 2 – read -->
  <rect x="0" y="96" width="3" height="58" fill="#C4AEFF"/>
  <circle cx="20" cy="111" r="7" fill="#E0D8F0"/>
  <text x="20" y="114.5" font-size="7" font-weight="700" fill="#9B72E3" text-anchor="middle">R</text>
  <text x="32" y="112" font-size="7.5" font-weight="600" fill="#9B72E3">Reuters</text>
  <text x="200" y="112" font-size="7" fill="#49454F" text-anchor="end">08:22</text>
  <text x="11" y="126" font-size="8.5" font-weight="500" fill="#49454F">Global markets rise on</text>
  <text x="11" y="138" font-size="8.5" font-weight="500" fill="#49454F">Fed rate signals</text>
  <rect x="0" y="154" width="220" height="0.5" fill="#E0D8F0" opacity="0.8"/>

  <!-- Article 3 – unread -->
  <rect x="0" y="155" width="3" height="58" fill="#9B72E3"/>
  <circle cx="20" cy="170" r="7" fill="#9B72E3"/>
  <text x="20" y="173.5" font-size="7" font-weight="700" fill="#fff" text-anchor="middle">כ</text>
  <text x="32" y="171" font-size="7.5" font-weight="600" fill="#9B72E3">כאן חדשות</text>
  <text x="200" y="171" font-size="7" fill="#49454F" text-anchor="end">07:50</text>
  <text x="11" y="185" font-size="8.5" font-weight="500" fill="#1C1B1F">הממשלה אישרה את</text>
  <text x="11" y="197" font-size="8.5" font-weight="500" fill="#1C1B1F">תקציב 2025</text>
  <rect x="0" y="213" width="220" height="0.5" fill="#E0D8F0" opacity="0.8"/>

  <!-- Article 4 -->
  <rect x="0" y="214" width="3" height="58" fill="#7B52C3"/>
  <circle cx="20" cy="229" r="7" fill="#7B52C3"/>
  <text x="20" y="232.5" font-size="7" font-weight="700" fill="#fff" text-anchor="middle">W</text>
  <text x="32" y="230" font-size="7.5" font-weight="600" fill="#9B72E3">Wired</text>
  <text x="200" y="230" font-size="7" fill="#49454F" text-anchor="end">Yesterday</text>
  <text x="11" y="244" font-size="8.5" font-weight="500" fill="#1C1B1F">AI tools are reshaping</text>
  <text x="11" y="256" font-size="8.5" font-weight="500" fill="#1C1B1F">how engineers work</text>
  <rect x="0" y="272" width="220" height="1" fill="#E0D8F0"/>

  <!-- Footer -->
  <text x="14" y="290" font-size="8" fill="#9B72E3">↻ in 8min</text>
  <text x="206" y="290" font-size="12" fill="#9B72E3" text-anchor="end">⚙</text>
</svg>
